<?xml version="1.0" encoding="UTF-8"?>
<svg version="1.1" xmlns="http://www.w3.org/2000/svg" xmlns:xlink="http://www.w3.org/1999/xlink" class="page" pageAlignment="none" x="0px" y="0px" width="740px" height="416px" viewBox="0 0 740 416" enable-background="new 0 0 740 416" xml:space="preserve"><defs xmlns=""><clipPath id="_1439510746973_0_"><path width="215.2" height="65.9" stroke-miterlimit="3" stroke="none" fill="#000" opacity="0.5" d="M279.6,192.1 C279.6,188 283,184.6 287.1,184.6 L487.3,184.6 C491.5,184.6 494.8,187.9 494.8,192.1 L494.8,250.5 L279.6,250.5 L279.6,192.1 Z "/></clipPath><clipPath id="_1439510746973_1_"><path width="213" height="65.9" stroke-miterlimit="3" stroke="none" fill="#000" d="M276.8,192.1 C276.8,188 280.1,184.6 284.3,184.6 L482.3,184.6 C486.40000000000003,184.6 489.8,187.9 489.8,192.1 L489.8,250.5 L276.8,250.5 L276.8,192.1 Z "/></clipPath><clipPath id="_1439510746973_2_"><path width="215.2" height="65.9" stroke-miterlimit="3" stroke="none" fill="#000" opacity="0.5" d="M279.6,192.1 C279.6,188 283,184.6 287.1,184.6 L487.3,184.6 C491.5,184.6 494.8,187.9 494.8,192.1 L494.8,250.5 L279.6,250.5 L279.6,192.1 Z "/></clipPath><clipPath id="_1439510746973_3_"><path width="213" height="65.9" stroke-miterlimit="3" stroke="none" fill="#000" d="M276.8,192.1 C276.8,188 280.1,184.6 284.3,184.6 L482.3,184.6 C486.40000000000003,184.6 489.8,187.9 489.8,192.1 L489.8,250.5 L276.8,250.5 L276.8,192.1 Z "/></clipPath><link xmlns="http://www.w3.org/1999/xhtml" rel="stylesheet" href="//fonts.googleapis.com/css?family=Sirin+Stencil" media="all" /></defs><style xmlns="" type="text/css"/><style xmlns="" type="text/css"/><g xmlns="" type="LAYER" name="workspace" id="workspace" locked="true"/><g xmlns=""><path id="lash_3_" width="513.8" height="79.6" stroke-miterlimit="3" stroke="none" fill="#FCD17A" d="M66.7,177.8 C63.800000000000004,177.8 61.400000000000006,175.9 60.7,173.20000000000002 C68.5,151.8 81.7,115.20000000000002 83.2,110.10000000000002 C85.3,102.80000000000003 87.4,98.20000000000002 98.8,98.20000000000002 C110.19999999999999,98.20000000000002 317.8,98.20000000000002 317.8,98.20000000000002 C317.8,98.20000000000002 524.6,98.20000000000002 536,98.20000000000002 C547.4,98.20000000000002 549.5,102.90000000000002 551.6,110.10000000000002 C553.1,115.30000000000003 566.8000000000001,153.10000000000002 574.5,174.3 C573.5,176.4 571.4,177.8 568.9,177.8 "/><path id="Button_5_" width="48.39999999999998" height="48.39999999999998" stroke-miterlimit="3" stroke="none" fill="#E2E2E2" d="M317.7,267.3 C304.4,267.3 293.5,278.1 293.5,291.5 C293.5,304.8 304.3,315.7 317.7,315.7 C331,315.7 341.9,304.9 341.9,291.5 C341.9,278.1 331.1,267.3 317.7,267.3 Z M317.7,296.5 C314.9,296.5 312.59999999999997,294.2 312.59999999999997,291.4 C312.59999999999997,288.59999999999997 314.9,286.29999999999995 317.7,286.29999999999995 C320.5,286.29999999999995 322.8,288.59999999999997 322.8,291.4 C322.8,294.2 320.5,296.5 317.7,296.5 Z "/><g opacity="0.2"><path id="background_3_" width="520.7" height="230.5" stroke-miterlimit="3" stroke="none" fill="#3F3F3F" d="M60.4,404 L60.4,179.9 C60.4,176.4 63.199999999999996,173.5 66.7,173.5 L574.8000000000001,173.5 C578.3000000000001,173.5 581.1,176.3 581.1,179.9 L581.1,404 "/><path width="519.9000000000001" height="157.8" stroke-miterlimit="3" stroke="none" fill="#3F3F3F" d="M61.3,176.9 L83.9,96.2 L552.7,98.1 L581.2,179.4 L557.2,254 L88.5,254 Z "/></g><g opacity="0.3"><path id="background_2_" width="514.5000000000001" height="231.89999999999998" stroke-miterlimit="3" stroke="none" fill="#FCD17A" d="M60.4,404 L60.4,178.3 C60.4,174.9 63.199999999999996,172.10000000000002 66.6,172.10000000000002 L568.7,172.10000000000002 C572.1,172.10000000000002 574.9000000000001,174.90000000000003 574.9000000000001,178.3 L574.9000000000001,404 L60.4,404 Z "/><path width="514.1" height="155.5" stroke-miterlimit="3" stroke="none" fill="#F4BE60" opacity="0.46" d="M60.9,175.8 L83.4,96.5 L546.8,98.2 L575,178.4 L551.4,252 L87.5,252 Z "/></g><path transform="matrix(1 0 0 1 103.50000000000003 2.700000000000003)" width="426.7" height="249.1" stroke-miterlimit="3" stroke="none" fill="#3F3F3F" opacity="0.2" d="M0,0 L426.7,0 L426.7,249.1 L0,249.1 L0,0 Z "/><path transform="matrix(1 0 0 1 102.50000000000003 3.200000000000003)" width="420.2" height="248.5" stroke-miterlimit="3" stroke="none" fill="#FFFDF5" d="M0,0 L420.2,0 L420.2,248.5 L0,248.5 L0,0 Z "/><g opacity="0.5"><path id="SVGID_1_" width="215.2" height="65.9" stroke-miterlimit="3" stroke="none" fill="#BABABA" opacity="0.5" d="M279.6,192.1 C279.6,188 283,184.6 287.1,184.6 L487.3,184.6 C491.5,184.6 494.8,187.9 494.8,192.1 L494.8,250.5 L279.6,250.5 L279.6,192.1 Z "/><g clip-path="url(#_1439510746973_0_)"><path transform="matrix(1 0 0 1 271.5 179.7)" width="231.4" height="43.6" stroke-miterlimit="3" stroke="none" fill="#BABABA" d="M0,0 L231.4,0 L231.4,43.6 L0,43.6 L0,0 Z "/></g></g><g><path id="SVGID_3_" width="213" height="65.9" stroke-miterlimit="3" stroke="none" fill="#FFFFFF" d="M276.8,192.1 C276.8,188 280.1,184.6 284.3,184.6 L482.3,184.6 C486.40000000000003,184.6 489.8,187.9 489.8,192.1 L489.8,250.5 L276.8,250.5 L276.8,192.1 Z "/><g clip-path="url(#_1439510746973_1_)"><path transform="matrix(1 0 0 1 268.8 179.7)" width="228.9" height="43.6" stroke-miterlimit="3" stroke="none" fill="#216E68" d="M0,0 L228.9,0 L228.9,43.6 L0,43.6 L0,0 Z "/></g></g><g><path width="8.599999999999966" height="9.599999999999994" stroke-miterlimit="3" stroke="none" fill="#FFFF66" d="M319.7,201.5 L319.7,191.9 L321.59999999999997,191.9 L321.59999999999997,196.20000000000002 L325.49999999999994,191.9 L328.09999999999997,191.9 L324.49999999999994,195.6 L328.29999999999995,201.5 L325.79999999999995,201.5 L323.19999999999993,197 L321.5999999999999,198.6 L321.5999999999999,201.5 L319.7,201.5 Z "/><path width="9.60000000000008" height="9.599999999999994" stroke-miterlimit="3" stroke="none" fill="#FFFF66" d="M338.1,201.5 L336,201.5 L335.2,199.3 L331.4,199.3 L330.59999999999997,201.5 L328.49999999999994,201.5 L332.19999999999993,191.9 L334.29999999999995,191.9 L338.1,201.5 Z M334.5,197.7 L333.2,194.1 L331.9,197.7 L334.5,197.7 Z "/><path width="8.600000000000023" height="9.700000000000045" stroke-miterlimit="3" stroke="none" fill="#FFFF66" d="M339.1,201.5 L339.1,191.9 L343.20000000000005,191.9 C344.20000000000005,191.9 345.00000000000006,192 345.40000000000003,192.20000000000002 C345.90000000000003,192.4 346.20000000000005,192.70000000000002 346.50000000000006,193.10000000000002 C346.80000000000007,193.50000000000003 346.90000000000003,194.00000000000003 346.90000000000003,194.60000000000002 C346.90000000000003,195.3 346.70000000000005,195.90000000000003 346.3,196.40000000000003 C345.90000000000003,196.90000000000003 345.2,197.20000000000005 344.40000000000003,197.30000000000004 C344.8,197.50000000000003 345.20000000000005,197.80000000000004 345.40000000000003,198.10000000000005 C345.70000000000005,198.40000000000006 346.00000000000006,198.90000000000006 346.50000000000006,199.70000000000005 L347.70000000000005,201.60000000000005 L345.40000000000003,201.60000000000005 L344.00000000000006,199.50000000000006 C343.50000000000006,198.80000000000007 343.20000000000005,198.30000000000007 343.00000000000006,198.10000000000005 C342.80000000000007,197.90000000000006 342.6000000000001,197.80000000000004 342.40000000000003,197.70000000000005 C342.20000000000005,197.60000000000005 341.90000000000003,197.60000000000005 341.40000000000003,197.60000000000005 L341,197.60000000000005 L341,201.60000000000005 L339.1,201.60000000000005 Z M341,195.9 L342.4,195.9 C343.29999999999995,195.9 343.9,195.9 344.09999999999997,195.8 C344.29999999999995,195.70000000000002 344.49999999999994,195.60000000000002 344.59999999999997,195.4 C344.7,195.20000000000002 344.79999999999995,195 344.79999999999995,194.70000000000002 C344.79999999999995,194.4 344.69999999999993,194.10000000000002 344.49999999999994,193.9 C344.29999999999995,193.70000000000002 344.09999999999997,193.6 343.79999999999995,193.5 C343.59999999999997,193.5 343.19999999999993,193.5 342.4,193.5 L341,193.5 L341,195.9 Z "/><path width="7.599999999999966" height="9.599999999999994" stroke-miterlimit="3" stroke="none" fill="#FFFF66" d="M348.8,201.5 L348.8,191.9 L350.7,191.9 L354.59999999999997,198.3 L354.59999999999997,191.9 L356.4,191.9 L356.4,201.5 L354.5,201.5 L350.6,195.2 L350.6,201.5 L348.8,201.5 Z "/><path width="9.700000000000045" height="9.599999999999994" stroke-miterlimit="3" stroke="none" fill="#FFFF66" d="M367.2,201.5 L365,201.5 L364.2,199.3 L360.4,199.3 L359.59999999999997,201.5 L357.49999999999994,201.5 L361.19999999999993,191.9 L363.29999999999995,191.9 L367.2,201.5 Z M363.6,197.7 L362.3,194.1 L361,197.7 L363.6,197.7 Z "/><path width="7.600000000000023" height="9.599999999999994" stroke-miterlimit="3" stroke="none" fill="#FFFF66" d="M369.4,201.5 L369.4,193.5 L366.5,193.5 L366.5,191.9 L374.1,191.9 L374.1,193.5 L371.3,193.5 L371.3,201.5 L369.4,201.5 Z "/><path width="9.60000000000008" height="9.599999999999994" stroke-miterlimit="3" stroke="none" fill="#FFFF66" d="M383.1,201.5 L381,201.5 L380.2,199.3 L376.4,199.3 L375.59999999999997,201.5 L373.49999999999994,201.5 L377.19999999999993,191.9 L379.29999999999995,191.9 L383.1,201.5 Z M379.5,197.7 L378.2,194.1 L376.9,197.7 L379.5,197.7 Z "/><path width="8.599999999999966" height="9.599999999999994" stroke-miterlimit="3" stroke="none" fill="#FFFF66" d="M384.1,201.5 L384.1,191.9 L386,191.9 L386,196.20000000000002 L389.9,191.9 L392.5,191.9 L388.9,195.6 L392.7,201.5 L390.2,201.5 L387.59999999999997,197 L385.99999999999994,198.6 L385.99999999999994,201.5 L384.1,201.5 Z "/><path width="9.60000000000008" height="9.599999999999994" stroke-miterlimit="3" stroke="none" fill="#FFFF66" d="M402.5,201.5 L400.4,201.5 L399.59999999999997,199.3 L395.79999999999995,199.3 L394.99999999999994,201.5 L392.8999999999999,201.5 L396.5999999999999,191.9 L398.69999999999993,191.9 L402.5,201.5 Z M398.9,197.7 L397.59999999999997,194.1 L396.29999999999995,197.7 L398.9,197.7 Z "/><path width="7.999999999999943" height="9.899999999999977" stroke-miterlimit="3" stroke="none" fill="#FFFF66" d="M406.2,198.4 L408.09999999999997,198.20000000000002 C408.2,198.8 408.4,199.3 408.79999999999995,199.60000000000002 C409.09999999999997,199.90000000000003 409.59999999999997,200.00000000000003 410.19999999999993,200.00000000000003 C410.79999999999995,200.00000000000003 411.29999999999995,199.90000000000003 411.5999999999999,199.60000000000002 C411.8999999999999,199.3 412.0999999999999,199.00000000000003 412.0999999999999,198.70000000000002 C412.0999999999999,198.50000000000003 411.9999999999999,198.3 411.8999999999999,198.10000000000002 C411.79999999999995,197.90000000000003 411.49999999999994,197.8 411.19999999999993,197.70000000000002 C410.99999999999994,197.60000000000002 410.49999999999994,197.50000000000003 409.5999999999999,197.3 C408.5999999999999,197 407.7999999999999,196.70000000000002 407.3999999999999,196.3 C406.7999999999999,195.8 406.49999999999994,195.10000000000002 406.49999999999994,194.4 C406.49999999999994,193.9 406.59999999999997,193.5 406.8999999999999,193 C407.19999999999993,192.6 407.5999999999999,192.2 408.0999999999999,192 C408.5999999999999,191.8 409.2999999999999,191.7 409.9999999999999,191.7 C411.1999999999999,191.7 412.0999999999999,192 412.6999999999999,192.5 C413.2999999999999,193 413.59999999999985,193.7 413.6999999999999,194.6 L411.7999999999999,194.7 C411.6999999999999,194.2 411.4999999999999,193.89999999999998 411.2999999999999,193.6 C410.9999999999999,193.4 410.5999999999999,193.29999999999998 410.0999999999999,193.29999999999998 C409.4999999999999,193.29999999999998 409.0999999999999,193.39999999999998 408.7999999999999,193.6 C408.5999999999999,193.7 408.4999999999999,193.9 408.4999999999999,194.2 C408.4999999999999,194.39999999999998 408.5999999999999,194.6 408.7999999999999,194.79999999999998 C408.9999999999999,194.99999999999997 409.5999999999999,195.2 410.5999999999999,195.39999999999998 C411.4999999999999,195.59999999999997 412.19999999999993,195.89999999999998 412.69999999999993,196.09999999999997 C413.19999999999993,196.29999999999995 413.49999999999994,196.69999999999996 413.79999999999995,197.09999999999997 C414.09999999999997,197.49999999999997 414.19999999999993,197.99999999999997 414.19999999999993,198.59999999999997 C414.19999999999993,199.19999999999996 413.99999999999994,199.69999999999996 413.69999999999993,200.09999999999997 C413.3999999999999,200.59999999999997 412.99999999999994,200.89999999999998 412.3999999999999,201.19999999999996 C411.7999999999999,201.39999999999995 411.0999999999999,201.59999999999997 410.2999999999999,201.59999999999997 C409.0999999999999,201.59999999999997 408.1999999999999,201.29999999999995 407.4999999999999,200.79999999999995 C406.8,200.3 406.4,199.4 406.2,198.4 Z "/><path width="7.600000000000023" height="9.599999999999994" stroke-miterlimit="3" stroke="none" fill="#FFFF66" d="M417.8,201.5 L417.8,193.5 L415,193.5 L415,191.9 L422.6,191.9 L422.6,193.5 L419.8,193.5 L419.8,201.5 L417.8,201.5 Z "/><path width="9.60000000000008" height="9.599999999999994" stroke-miterlimit="3" stroke="none" fill="#FFFF66" d="M431.6,201.5 L429.5,201.5 L428.7,199.3 L424.9,199.3 L424.09999999999997,201.5 L421.99999999999994,201.5 L425.69999999999993,191.9 L427.79999999999995,191.9 L431.6,201.5 Z M428,197.7 L426.7,194.1 L425.4,197.7 L428,197.7 Z "/><path width="7.600000000000023" height="9.599999999999994" stroke-miterlimit="3" stroke="none" fill="#FFFF66" d="M433.8,201.5 L433.8,193.5 L430.90000000000003,193.5 L430.90000000000003,191.9 L438.50000000000006,191.9 L438.50000000000006,193.5 L435.70000000000005,193.5 L435.70000000000005,201.5 L433.8,201.5 Z "/><path width="7.300000000000011" height="9.599999999999994" stroke-miterlimit="3" stroke="none" fill="#FFFF66" d="M439.8,201.5 L439.8,191.9 L446.90000000000003,191.9 L446.90000000000003,193.5 L441.70000000000005,193.5 L441.70000000000005,195.6 L446.50000000000006,195.6 L446.50000000000006,197.2 L441.70000000000005,197.2 L441.70000000000005,199.79999999999998 L447.1,199.79999999999998 L447.1,201.39999999999998 L439.8,201.39999999999998 Z "/><path width="6.900000000000034" height="8.299999999999983" stroke-miterlimit="3" stroke="none" fill="#FFFF66" d="M299.9,216.5 L301.5,217 C301.3,217.9 300.9,218.5 300.3,218.9 C299.7,219.3 299,219.5 298.2,219.5 C297.09999999999997,219.5 296.3,219.1 295.59999999999997,218.4 C294.9,217.70000000000002 294.59999999999997,216.70000000000002 294.59999999999997,215.4 C294.59999999999997,214.1 294.9,213 295.59999999999997,212.3 C296.29999999999995,211.60000000000002 297.2,211.20000000000002 298.29999999999995,211.20000000000002 C299.29999999999995,211.20000000000002 300.09999999999997,211.50000000000003 300.69999999999993,212.10000000000002 C301.0999999999999,212.40000000000003 301.29999999999995,212.90000000000003 301.49999999999994,213.60000000000002 L299.8999999999999,214.00000000000003 C299.7999999999999,213.60000000000002 299.5999999999999,213.30000000000004 299.2999999999999,213.00000000000003 C298.9999999999999,212.80000000000004 298.5999999999999,212.60000000000002 298.1999999999999,212.60000000000002 C297.59999999999985,212.60000000000002 297.09999999999985,212.8 296.7999999999999,213.20000000000002 C296.3999999999999,213.60000000000002 296.1999999999999,214.3 296.1999999999999,215.3 C296.1999999999999,216.3 296.39999999999986,217 296.6999999999999,217.5 C297.09999999999985,217.9 297.4999999999999,218.1 298.09999999999985,218.1 C298.49999999999983,218.1 298.89999999999986,218 299.1999999999999,217.7 C299.5,217.5 299.7,217 299.9,216.5 Z "/><path width="6.099999999999966" height="8.000000000000028" stroke-miterlimit="3" stroke="none" fill="#FFFF66" d="M302.8,219.4 L302.8,211.4 L308.7,211.4 L308.7,212.8 L304.4,212.8 L304.4,214.60000000000002 L308.4,214.60000000000002 L308.4,215.90000000000003 L304.4,215.90000000000003 L304.4,218.10000000000002 L308.9,218.10000000000002 L308.9,219.40000000000003 L302.8,219.40000000000003 Z "/><path width="7.199999999999875" height="8.100000000000023" stroke-miterlimit="3" stroke="none" fill="#FFFF66" d="M310.3,219.4 L310.3,211.4 L313.7,211.4 C314.59999999999997,211.4 315.2,211.5 315.59999999999997,211.6 C315.99999999999994,211.7 316.29999999999995,212 316.49999999999994,212.4 C316.69999999999993,212.8 316.79999999999995,213.20000000000002 316.79999999999995,213.70000000000002 C316.79999999999995,214.3 316.59999999999997,214.8 316.29999999999995,215.20000000000002 C315.9,215.60000000000002 315.4,215.8 314.69999999999993,215.9 C314.99999999999994,216.1 315.29999999999995,216.3 315.5999999999999,216.6 C315.7999999999999,216.79999999999998 316.0999999999999,217.29999999999998 316.4999999999999,217.9 L317.4999999999999,219.5 L315.5999999999999,219.5 L314.3999999999999,217.8 C313.99999999999994,217.20000000000002 313.69999999999993,216.8 313.49999999999994,216.60000000000002 C313.29999999999995,216.40000000000003 313.19999999999993,216.3 312.99999999999994,216.3 C312.79999999999995,216.20000000000002 312.59999999999997,216.20000000000002 312.19999999999993,216.20000000000002 L311.8999999999999,216.20000000000002 L311.8999999999999,219.50000000000003 L310.3,219.50000000000003 Z M311.9,214.8 L313.09999999999997,214.8 C313.9,214.8 314.4,214.8 314.59999999999997,214.70000000000002 C314.79999999999995,214.60000000000002 314.9,214.50000000000003 315.09999999999997,214.4 C315.2,214.20000000000002 315.29999999999995,214 315.29999999999995,213.8 C315.29999999999995,213.5 315.19999999999993,213.3 315.09999999999997,213.10000000000002 C314.99999999999994,212.90000000000003 314.79999999999995,212.8 314.49999999999994,212.8 C314.3999999999999,212.8 313.99999999999994,212.8 313.29999999999995,212.8 L311.99999999999994,212.8 L311.99999999999994,214.8 Z "/><path width="6.399999999999977" height="8.099999999999994" stroke-miterlimit="3" stroke="none" fill="#FFFF66" d="M320.2,219.4 L320.2,212.70000000000002 L317.8,212.70000000000002 L317.8,211.3 L324.2,211.3 L324.2,212.70000000000002 L321.8,212.70000000000002 L321.8,219.4 L320.2,219.4 Z "/><path width="1.6000000000000227" height="8" stroke-miterlimit="3" stroke="none" fill="#FFFF66" d="M325.2,219.4 L325.2,211.4 L326.8,211.4 L326.8,219.4 L325.2,219.4 Z "/><path width="5.5" height="8.100000000000023" stroke-miterlimit="3" stroke="none" fill="#FFFF66" d="M328.3,219.4 L328.3,211.4 L333.8,211.4 L333.8,212.8 L329.90000000000003,212.8 L329.90000000000003,214.70000000000002 L333.20000000000005,214.70000000000002 L333.20000000000005,216.10000000000002 L329.90000000000003,216.10000000000002 L329.90000000000003,219.50000000000003 L328.3,219.50000000000003 Z "/><path width="1.6000000000000227" height="8" stroke-miterlimit="3" stroke="none" fill="#FFFF66" d="M335.1,219.4 L335.1,211.4 L336.70000000000005,211.4 L336.70000000000005,219.4 L335.1,219.4 Z "/><path width="6.900000000000034" height="8.299999999999983" stroke-miterlimit="3" stroke="none" fill="#FFFF66" d="M343.4,216.5 L345,217 C344.8,217.9 344.4,218.5 343.8,218.9 C343.2,219.3 342.5,219.5 341.7,219.5 C340.59999999999997,219.5 339.8,219.1 339.09999999999997,218.4 C338.4,217.70000000000002 338.09999999999997,216.70000000000002 338.09999999999997,215.4 C338.09999999999997,214.1 338.4,213 339.09999999999997,212.3 C339.79999999999995,211.60000000000002 340.7,211.20000000000002 341.79999999999995,211.20000000000002 C342.79999999999995,211.20000000000002 343.59999999999997,211.50000000000003 344.19999999999993,212.10000000000002 C344.5999999999999,212.40000000000003 344.79999999999995,212.90000000000003 344.99999999999994,213.60000000000002 L343.3999999999999,214.00000000000003 C343.2999999999999,213.60000000000002 343.0999999999999,213.30000000000004 342.7999999999999,213.00000000000003 C342.4999999999999,212.80000000000004 342.0999999999999,212.60000000000002 341.6999999999999,212.60000000000002 C341.09999999999985,212.60000000000002 340.59999999999985,212.8 340.2999999999999,213.20000000000002 C339.8999999999999,213.60000000000002 339.6999999999999,214.3 339.6999999999999,215.3 C339.6999999999999,216.3 339.89999999999986,217 340.1999999999999,217.5 C340.59999999999985,217.9 340.9999999999999,218.1 341.59999999999985,218.1 C341.99999999999983,218.1 342.39999999999986,218 342.6999999999999,217.7 C343,217.5 343.3,217 343.4,216.5 Z "/><path width="8.099999999999966" height="8" stroke-miterlimit="3" stroke="none" fill="#FFFF66" d="M353.6,219.4 L351.8,219.4 L351.1,217.6 L347.90000000000003,217.6 L347.20000000000005,219.4 L345.50000000000006,219.4 L348.6000000000001,211.4 L350.30000000000007,211.4 L353.6,219.4 Z M350.6,216.2 L349.5,213.2 L348.4,216.2 L350.6,216.2 Z "/><path width="6.399999999999977" height="8.099999999999994" stroke-miterlimit="3" stroke="none" fill="#FFFF66" d="M355.4,219.4 L355.4,212.70000000000002 L353,212.70000000000002 L353,211.3 L359.4,211.3 L359.4,212.70000000000002 L357,212.70000000000002 L357,219.4 L355.4,219.4 Z "/><path width="6.100000000000023" height="8.000000000000028" stroke-miterlimit="3" stroke="none" fill="#FFFF66" d="M360.4,219.4 L360.4,211.4 L366.29999999999995,211.4 L366.29999999999995,212.8 L362,212.8 L362,214.60000000000002 L366,214.60000000000002 L366,215.90000000000003 L362,215.90000000000003 L362,218.10000000000002 L366.5,218.10000000000002 L366.5,219.40000000000003 L360.4,219.40000000000003 Z "/><path width="7.699999999999989" height="8.299999999999983" stroke-miterlimit="3" stroke="none" fill="#FFFF66" d="M370.7,215.4 C370.7,214.6 370.8,213.9 371.09999999999997,213.3 C371.29999999999995,212.9 371.49999999999994,212.5 371.79999999999995,212.20000000000002 C372.09999999999997,211.9 372.49999999999994,211.60000000000002 372.79999999999995,211.50000000000003 C373.29999999999995,211.30000000000004 373.9,211.20000000000002 374.49999999999994,211.20000000000002 C375.69999999999993,211.20000000000002 376.59999999999997,211.60000000000002 377.29999999999995,212.3 C377.99999999999994,213 378.4,214.10000000000002 378.4,215.4 C378.4,216.70000000000002 378,217.70000000000002 377.29999999999995,218.4 C376.59999999999997,219.1 375.69999999999993,219.5 374.49999999999994,219.5 C373.29999999999995,219.5 372.3999999999999,219.1 371.69999999999993,218.4 C371,217.7 370.7,216.7 370.7,215.4 Z M372.3,215.4 C372.3,216.3 372.5,217 372.90000000000003,217.5 C373.3,218 373.90000000000003,218.2 374.50000000000006,218.2 C375.1000000000001,218.2 375.70000000000005,218 376.1000000000001,217.5 C376.50000000000006,217 376.7000000000001,216.3 376.7000000000001,215.4 C376.7000000000001,214.5 376.5000000000001,213.8 376.1000000000001,213.3 C375.7000000000001,212.8 375.2000000000001,212.60000000000002 374.50000000000006,212.60000000000002 C373.80000000000007,212.60000000000002 373.30000000000007,212.8 372.90000000000003,213.3 C372.5,213.8 372.3,214.5 372.3,215.4 Z "/><path width="5.5" height="8.100000000000023" stroke-miterlimit="3" stroke="none" fill="#FFFF66" d="M379.7,219.4 L379.7,211.4 L385.2,211.4 L385.2,212.8 L381.3,212.8 L381.3,214.70000000000002 L384.6,214.70000000000002 L384.6,216.10000000000002 L381.3,216.10000000000002 L381.3,219.50000000000003 L379.7,219.50000000000003 Z "/><path width="7.199999999999875" height="8.100000000000023" stroke-miterlimit="3" stroke="none" fill="#FFFF66" d="M389.7,219.4 L389.7,211.4 L393.09999999999997,211.4 C393.99999999999994,211.4 394.59999999999997,211.5 394.99999999999994,211.6 C395.3999999999999,211.7 395.69999999999993,212 395.8999999999999,212.4 C396.0999999999999,212.8 396.19999999999993,213.20000000000002 396.19999999999993,213.70000000000002 C396.19999999999993,214.3 395.99999999999994,214.8 395.69999999999993,215.20000000000002 C395.29999999999995,215.60000000000002 394.79999999999995,215.8 394.0999999999999,215.9 C394.3999999999999,216.1 394.69999999999993,216.3 394.9999999999999,216.6 C395.1999999999999,216.79999999999998 395.4999999999999,217.29999999999998 395.89999999999986,217.9 L396.89999999999986,219.5 L394.9999999999999,219.5 L393.7999999999999,217.8 C393.3999999999999,217.20000000000002 393.0999999999999,216.8 392.8999999999999,216.60000000000002 C392.69999999999993,216.40000000000003 392.5999999999999,216.3 392.3999999999999,216.3 C392.19999999999993,216.20000000000002 391.99999999999994,216.20000000000002 391.5999999999999,216.20000000000002 L391.2999999999999,216.20000000000002 L391.2999999999999,219.50000000000003 L389.7,219.50000000000003 Z M391.3,214.8 L392.5,214.8 C393.3,214.8 393.8,214.8 394,214.70000000000002 C394.2,214.60000000000002 394.3,214.50000000000003 394.5,214.4 C394.6,214.20000000000002 394.7,214 394.7,213.8 C394.7,213.5 394.59999999999997,213.3 394.5,213.10000000000002 C394.4,212.90000000000003 394.2,212.8 393.9,212.8 C393.79999999999995,212.8 393.4,212.8 392.7,212.8 L391.4,212.8 L391.4,214.8 Z "/><path width="6.099999999999966" height="8.000000000000028" stroke-miterlimit="3" stroke="none" fill="#FFFF66" d="M397.7,219.4 L397.7,211.4 L403.59999999999997,211.4 L403.59999999999997,212.8 L399.29999999999995,212.8 L399.29999999999995,214.60000000000002 L403.29999999999995,214.60000000000002 L403.29999999999995,215.90000000000003 L399.29999999999995,215.90000000000003 L399.29999999999995,218.10000000000002 L403.79999999999995,218.10000000000002 L403.79999999999995,219.40000000000003 L397.7,219.40000000000003 Z "/><path width="7.599999999999966" height="8.199999999999989" stroke-miterlimit="3" stroke="none" fill="#FFFF66" d="M408.9,216.5 L408.9,215.2 L412.4,215.2 L412.4,218.39999999999998 C412.09999999999997,218.7 411.59999999999997,218.99999999999997 410.9,219.29999999999998 C410.29999999999995,219.49999999999997 409.59999999999997,219.7 408.9,219.7 C408.09999999999997,219.7 407.29999999999995,219.5 406.7,219.2 C406.09999999999997,218.79999999999998 405.59999999999997,218.29999999999998 405.3,217.7 C405,217 404.8,216.29999999999998 404.8,215.6 C404.8,214.79999999999998 405,214 405.3,213.4 C405.6,212.8 406.2,212.3 406.8,211.9 C407.3,211.6 408,211.5 408.7,211.5 C409.7,211.5 410.5,211.7 411,212.1 C411.6,212.5 411.9,213.1 412.1,213.79999999999998 L410.5,214.1 C410.4,213.7 410.2,213.4 409.9,213.2 C409.59999999999997,213 409.2,212.89999999999998 408.7,212.89999999999998 C408,212.89999999999998 407.4,213.09999999999997 407,213.59999999999997 C406.6,213.99999999999997 406.4,214.69999999999996 406.4,215.59999999999997 C406.4,216.59999999999997 406.59999999999997,217.29999999999995 407,217.69999999999996 C407.4,218.19999999999996 408,218.39999999999995 408.7,218.39999999999995 C409,218.39999999999995 409.4,218.29999999999995 409.7,218.19999999999996 C410,218.09999999999997 410.3,217.89999999999995 410.59999999999997,217.69999999999996 L410.59999999999997,216.69999999999996 L408.9,216.69999999999996 Z "/><path width="1.6000000000000227" height="8" stroke-miterlimit="3" stroke="none" fill="#FFFF66" d="M413.9,219.4 L413.9,211.4 L415.5,211.4 L415.5,219.4 L413.9,219.4 Z "/><path width="6.599999999999966" height="8.400000000000034" stroke-miterlimit="3" stroke="none" fill="#FFFF66" d="M416.6,216.8 L418.20000000000005,216.60000000000002 C418.30000000000007,217.10000000000002 418.50000000000006,217.50000000000003 418.80000000000007,217.8 C419.1000000000001,218 419.50000000000006,218.20000000000002 420.00000000000006,218.20000000000002 C420.50000000000006,218.20000000000002 420.90000000000003,218.10000000000002 421.20000000000005,217.9 C421.50000000000006,217.70000000000002 421.6,217.4 421.6,217.1 C421.6,216.9 421.5,216.7 421.40000000000003,216.6 C421.3,216.5 421.1,216.4 420.8,216.29999999999998 C420.6,216.2 420.2,216.1 419.5,215.99999999999997 C418.6,215.79999999999998 418,215.49999999999997 417.7,215.19999999999996 C417.2,214.79999999999995 417,214.19999999999996 417,213.59999999999997 C417,213.19999999999996 417.1,212.79999999999995 417.3,212.49999999999997 C417.5,212.09999999999997 417.90000000000003,211.89999999999998 418.3,211.69999999999996 C418.7,211.49999999999997 419.3,211.39999999999995 419.90000000000003,211.39999999999995 C420.90000000000003,211.39999999999995 421.70000000000005,211.59999999999994 422.20000000000005,212.09999999999994 C422.70000000000005,212.49999999999994 423.00000000000006,213.09999999999994 423.00000000000006,213.89999999999995 L421.40000000000003,213.99999999999994 C421.3,213.59999999999994 421.20000000000005,213.29999999999995 421.00000000000006,213.09999999999994 C420.80000000000007,212.89999999999995 420.40000000000003,212.79999999999993 420.00000000000006,212.79999999999993 C419.50000000000006,212.79999999999993 419.20000000000005,212.89999999999992 418.90000000000003,213.09999999999994 C418.70000000000005,213.19999999999993 418.6,213.39999999999995 418.6,213.59999999999994 C418.6,213.79999999999993 418.70000000000005,213.99999999999994 418.8,214.09999999999994 C419,214.29999999999993 419.5,214.39999999999995 420.3,214.59999999999994 C421.1,214.79999999999993 421.7,214.99999999999994 422,215.19999999999993 C422.3,215.39999999999992 422.7,215.69999999999993 422.9,215.99999999999994 C423.09999999999997,216.29999999999995 423.2,216.79999999999995 423.2,217.29999999999995 C423.2,217.79999999999995 423.09999999999997,218.19999999999996 422.8,218.59999999999997 C422.5,218.99999999999997 422.2,219.29999999999995 421.7,219.49999999999997 C421.2,219.69999999999996 420.7,219.79999999999998 420,219.79999999999998 C419,219.79999999999998 418.2,219.6 417.7,219.1 C417,218.4 416.7,217.7 416.6,216.8 Z "/><path width="6.399999999999977" height="8.099999999999994" stroke-miterlimit="3" stroke="none" fill="#FFFF66" d="M426.3,219.4 L426.3,212.70000000000002 L423.90000000000003,212.70000000000002 L423.90000000000003,211.3 L430.3,211.3 L430.3,212.70000000000002 L427.90000000000003,212.70000000000002 L427.90000000000003,219.4 L426.3,219.4 Z "/><path width="7.199999999999875" height="8.100000000000023" stroke-miterlimit="3" stroke="none" fill="#FFFF66" d="M431.3,219.4 L431.3,211.4 L434.7,211.4 C435.59999999999997,211.4 436.2,211.5 436.59999999999997,211.6 C436.99999999999994,211.7 437.29999999999995,212 437.49999999999994,212.4 C437.69999999999993,212.8 437.79999999999995,213.20000000000002 437.79999999999995,213.70000000000002 C437.79999999999995,214.3 437.59999999999997,214.8 437.29999999999995,215.20000000000002 C436.9,215.60000000000002 436.4,215.8 435.69999999999993,215.9 C435.99999999999994,216.1 436.29999999999995,216.3 436.5999999999999,216.6 C436.7999999999999,216.79999999999998 437.0999999999999,217.29999999999998 437.4999999999999,217.9 L438.4999999999999,219.5 L436.5999999999999,219.5 L435.3999999999999,217.8 C434.99999999999994,217.20000000000002 434.69999999999993,216.8 434.49999999999994,216.60000000000002 C434.29999999999995,216.40000000000003 434.19999999999993,216.3 433.99999999999994,216.3 C433.79999999999995,216.20000000000002 433.59999999999997,216.20000000000002 433.19999999999993,216.20000000000002 L432.8999999999999,216.20000000000002 L432.8999999999999,219.50000000000003 L431.3,219.50000000000003 Z M432.9,214.8 L434.09999999999997,214.8 C434.9,214.8 435.4,214.8 435.59999999999997,214.70000000000002 C435.79999999999995,214.60000000000002 435.9,214.50000000000003 436.09999999999997,214.4 C436.2,214.20000000000002 436.29999999999995,214 436.29999999999995,213.8 C436.29999999999995,213.5 436.19999999999993,213.3 436.09999999999997,213.10000000000002 C435.99999999999994,212.90000000000003 435.79999999999995,212.8 435.49999999999994,212.8 C435.3999999999999,212.8 434.99999999999994,212.8 434.29999999999995,212.8 L432.99999999999994,212.8 L432.99999999999994,214.8 Z "/><path width="8" height="8" stroke-miterlimit="3" stroke="none" fill="#FFFF66" d="M446.6,219.4 L444.8,219.4 L444.1,217.6 L441,217.6 L440.3,219.4 L438.6,219.4 L441.70000000000005,211.4 L443.40000000000003,211.4 L446.6,219.4 Z M443.6,216.2 L442.5,213.2 L441.4,216.2 L443.6,216.2 Z "/><path width="6.399999999999977" height="8.099999999999994" stroke-miterlimit="3" stroke="none" fill="#FFFF66" d="M448.5,219.4 L448.5,212.70000000000002 L446.1,212.70000000000002 L446.1,211.3 L452.5,211.3 L452.5,212.70000000000002 L450.1,212.70000000000002 L450.1,219.4 L448.5,219.4 Z "/><path width="1.6000000000000227" height="8" stroke-miterlimit="3" stroke="none" fill="#FFFF66" d="M453.4,219.4 L453.4,211.4 L455,211.4 L455,219.4 L453.4,219.4 Z "/><path width="7.699999999999989" height="8.299999999999983" stroke-miterlimit="3" stroke="none" fill="#FFFF66" d="M456.3,215.4 C456.3,214.6 456.40000000000003,213.9 456.7,213.3 C456.9,212.9 457.09999999999997,212.5 457.4,212.20000000000002 C457.7,211.9 458.09999999999997,211.60000000000002 458.4,211.50000000000003 C458.9,211.30000000000004 459.5,211.20000000000002 460.09999999999997,211.20000000000002 C461.29999999999995,211.20000000000002 462.2,211.60000000000002 462.9,212.3 C463.59999999999997,213 464,214.10000000000002 464,215.4 C464,216.70000000000002 463.6,217.70000000000002 462.9,218.4 C462.2,219.1 461.29999999999995,219.5 460.09999999999997,219.5 C458.9,219.5 457.99999999999994,219.1 457.29999999999995,218.4 C456.6,217.7 456.3,216.7 456.3,215.4 Z M457.9,215.4 C457.9,216.3 458.09999999999997,217 458.5,217.5 C458.9,218 459.5,218.2 460.1,218.2 C460.70000000000005,218.2 461.3,218 461.70000000000005,217.5 C462.1,217 462.30000000000007,216.3 462.30000000000007,215.4 C462.30000000000007,214.5 462.1000000000001,213.8 461.70000000000005,213.3 C461.30000000000007,212.8 460.80000000000007,212.60000000000002 460.1,212.60000000000002 C459.40000000000003,212.60000000000002 458.90000000000003,212.8 458.5,213.3 C458.1,213.8 457.9,214.5 457.9,215.4 Z "/><path width="6.400000000000034" height="8" stroke-miterlimit="3" stroke="none" fill="#FFFF66" d="M465.3,219.4 L465.3,211.4 L466.90000000000003,211.4 L470.20000000000005,216.8 L470.20000000000005,211.4 L471.70000000000005,211.4 L471.70000000000005,219.4 L470.1,219.4 L466.90000000000003,214.20000000000002 L466.90000000000003,219.4 L465.3,219.4 Z "/></g><path width="175.7" stroke-width="0.8715" stroke-miterlimit="3" stroke="#FFFF66" fill="none" d="M294.2,206 L469.9,206 "/><path transform="matrix(1 0 0 1 434.6 232.3)" width="30.8" height="6.2" stroke-miterlimit="3" stroke="none" fill="#DA8B2C" d="M0,0 L30.8,0 L30.8,6.2 L0,6.2 L0,0 Z "/><path transform="matrix(1 0 0 1 434.6 244.39999999999998)" width="30.8" height="6.2" stroke-miterlimit="3" stroke="none" fill="#1E6434" d="M0,0 L30.8,0 L30.8,6.2 L0,6.2 L0,0 Z "/><path stroke-miterlimit="3" stroke="none" fill="#948B72" d="M181.3,253.3 "/><path width="28.500000000000057" height="15.400000000000006" stroke-miterlimit="3" stroke="none" fill="#948B72" d="M306.5,249.9 L306.5,240.1 C306.5,237 309,234.5 312.1,234.5 L329.40000000000003,234.5 C332.50000000000006,234.5 335.00000000000006,237 335.00000000000006,240.1 L335.00000000000006,249.9 "/><path stroke-miterlimit="3" stroke="none" fill="#948B72" d="M163.9,253.3 "/><g opacity="0.2"><g><path width="44.599999999999994" height="72.1" stroke-miterlimit="3" stroke="none" fill="#3F3F3F" d="M121,137.3 L110.5,153.4 L85.5,207.2 L89,209.4 L130.1,142.9 Z "/><path width="32.099999999999994" height="56" stroke-miterlimit="3" stroke="none" fill="#3F3F3F" d="M79.5,201.3 L110.5,153.4 L88.7,205.8 L89.9,207.3 L89,209.4 L78.4,202.9 Z "/><path width="41.099999999999994" height="67.4" stroke-miterlimit="3" stroke="none" fill="#3F3F3F" d="M130.1,142.9 L129.1,148.3 L91.4,210.3 L89,209.4 Z "/><path width="10.399999999999991" height="16.80000000000001" stroke-miterlimit="3" stroke="none" fill="#3F3F3F" d="M130.1,142.9 L127.1,141.1 L119.7,157.9 Z "/></g><path width="72" height="72" stroke-miterlimit="3" stroke="none" fill="#3F3F3F" d="M6.200000000000003,310.8 C6.200000000000003,290.9177472 22.317747200000003,274.8 42.2,274.8 C62.082252800000006,274.8 78.2,290.9177472 78.2,310.8 C78.2,330.6822528 62.082252800000006,346.8 42.2,346.8 C22.317747200000003,346.8 6.200000000000003,330.6822528 6.200000000000003,310.8 Z "/><path width="67.12719999999999" height="73.28639999999999" stroke-miterlimit="3" stroke="none" fill="#3F3F3F" d="M85.9,204.9 C54.400000000000006,181.70000000000002 29.400000000000006,232.20000000000002 29.400000000000006,232.20000000000002 C37.60000000000001,285.3 80.9,270.20000000000005 80.9,270.20000000000005 C113,224.9 85.9,204.9 85.9,204.9 Z M74,262.5 C51.8,264.2 38.6,236.4 38.6,236.4 L40.7,233.6 L76.1,259.7 L74,262.5 Z "/><path width="25.800000000000004" height="25.799999999999983" stroke-miterlimit="3" stroke="none" fill="#3F3F3F" d="M34.1,260.5 C34.1,253.37552608 39.87552608,247.6 47,247.6 C54.12447392,247.6 59.900000000000006,253.37552608 59.900000000000006,260.5 C59.900000000000006,267.62447392 54.12447392,273.4 47,273.4 C39.87552608,273.4 34.1,267.62447392 34.1,260.5 Z "/><path width="10.742100000000008" height="12.400000000000034" stroke-miterlimit="3" stroke="none" fill="#3F3F3F" d="M63.1,261 L57.9,258.5 L53.5,269.6 L57.5,270.90000000000003 C57.5,270.90000000000003 64,267.1 64.2,266.8 C64.5,266.4 63.1,261 63.1,261 Z "/><path width="4" height="8.687999999999988" stroke-miterlimit="3" stroke="none" fill="#3F3F3F" d="M43.4,274.9 L43.699999999999996,267.7 C43.699999999999996,267.7 45.8,264.7 47.4,268.2 L47,275.2 "/><g><g><g><path width="5.199999999999996" height="4.800000000000011" stroke-miterlimit="3" stroke="none" fill="#3F3F3F" d="M29.6,324.4 L31.900000000000002,324.4 L31.900000000000002,325.7 L27,325.7 L29.5,322.2 L27.4,322.2 L27.4,320.9 L32.199999999999996,320.9 L29.6,324.4 Z "/><path width="5.600000000000005" height="5.2000000000000455" stroke-miterlimit="3" stroke="none" fill="#3F3F3F" d="M36.6,325.1 C36.2,325.5 35.4,325.90000000000003 34.5,325.90000000000003 C33.6,325.90000000000003 32.8,325.6 32.4,325.1 C31.9,324.6 31.7,323.90000000000003 31.7,323.3 C31.7,322.7 31.9,322 32.4,321.5 C32.8,321.1 33.6,320.7 34.5,320.7 C35.4,320.7 36.2,321 36.6,321.5 C37.1,322 37.300000000000004,322.7 37.300000000000004,323.3 C37.3,323.9 37.1,324.6 36.6,325.1 Z M33.6,322.4 C33.4,322.59999999999997 33.2,322.9 33.2,323.29999999999995 C33.2,323.69999999999993 33.400000000000006,323.99999999999994 33.6,324.19999999999993 C33.800000000000004,324.3999999999999 34.1,324.49999999999994 34.5,324.49999999999994 C34.8,324.49999999999994 35.1,324.3999999999999 35.4,324.19999999999993 C35.6,323.99999999999994 35.8,323.69999999999993 35.8,323.29999999999995 C35.8,322.9 35.699999999999996,322.59999999999997 35.4,322.4 C35.199999999999996,322.2 34.9,322.09999999999997 34.5,322.09999999999997 C34.1,322.1 33.8,322.2 33.6,322.4 Z "/><path width="5.6000000000000085" height="5.2000000000000455" stroke-miterlimit="3" stroke="none" fill="#3F3F3F" d="M42.5,325.1 C42.1,325.5 41.3,325.90000000000003 40.4,325.90000000000003 C39.5,325.90000000000003 38.699999999999996,325.6 38.3,325.1 C37.8,324.6 37.599999999999994,323.90000000000003 37.599999999999994,323.3 C37.599999999999994,322.7 37.8,322 38.3,321.5 C38.699999999999996,321.1 39.5,320.7 40.4,320.7 C41.3,320.7 42.1,321 42.5,321.5 C43,322 43.2,322.7 43.2,323.3 C43.2,323.9 43,324.6 42.5,325.1 Z M39.5,322.4 C39.3,322.59999999999997 39.1,322.9 39.1,323.29999999999995 C39.1,323.69999999999993 39.300000000000004,323.99999999999994 39.5,324.19999999999993 C39.7,324.3999999999999 40,324.49999999999994 40.4,324.49999999999994 C40.699999999999996,324.49999999999994 41,324.3999999999999 41.3,324.19999999999993 C41.5,323.99999999999994 41.699999999999996,323.69999999999993 41.699999999999996,323.29999999999995 C41.699999999999996,322.9 41.599999999999994,322.59999999999997 41.3,322.4 C41.099999999999994,322.2 40.8,322.09999999999997 40.4,322.09999999999997 C40,322.1 39.7,322.2 39.5,322.4 Z "/><path width="7.900000000000006" height="5.100000000000023" stroke-miterlimit="3" stroke="none" fill="#3F3F3F" d="M43.4,320.9 L45,320.9 L45,321.5 C45.4,320.9 46,320.8 46.3,320.8 C46.5,320.8 46.9,320.8 47.199999999999996,321 C47.49999999999999,321.1 47.699999999999996,321.4 47.8,321.7 C47.9,321.5 48.099999999999994,321.3 48.4,321.09999999999997 C48.699999999999996,320.9 49.1,320.79999999999995 49.4,320.79999999999995 C50,320.79999999999995 50.5,320.99999999999994 50.699999999999996,321.29999999999995 C51.199999999999996,321.69999999999993 51.199999999999996,322.4 51.199999999999996,322.69999999999993 L51.199999999999996,325.79999999999995 L49.599999999999994,325.79999999999995 L49.599999999999994,323.4 C49.599999999999994,323.09999999999997 49.599999999999994,322.7 49.39999999999999,322.5 C49.29999999999999,322.3 49.099999999999994,322.2 48.79999999999999,322.2 C48.49999999999999,322.2 48.29999999999999,322.3 48.19999999999999,322.5 C47.999999999999986,322.8 47.999999999999986,323.1 47.999999999999986,323.4 L47.999999999999986,325.79999999999995 L46.399999999999984,325.79999999999995 L46.399999999999984,323.29999999999995 C46.399999999999984,322.99999999999994 46.399999999999984,322.59999999999997 46.09999999999999,322.4 C45.899999999999984,322.2 45.69999999999999,322.2 45.59999999999999,322.2 C45.399999999999984,322.2 45.19999999999999,322.3 45.09999999999999,322.4 C44.79999999999999,322.7 44.79999999999999,323.2 44.79999999999999,323.4 L44.79999999999999,325.9 L43.29999999999999,325.9 L43.29999999999999,320.9 Z "/><path width="5.618200000000009" height="5.2000000000000455" stroke-miterlimit="3" stroke="none" fill="#3F3F3F" d="M56.4,325.1 C56,325.5 55.199999999999996,325.90000000000003 54.3,325.90000000000003 C53.4,325.90000000000003 52.599999999999994,325.6 52.199999999999996,325.1 C51.699999999999996,324.6 51.49999999999999,323.90000000000003 51.49999999999999,323.3 C51.49999999999999,322.7 51.699999999999996,322 52.199999999999996,321.5 C52.599999999999994,321.1 53.4,320.7 54.3,320.7 C55.199999999999996,320.7 56,321 56.4,321.5 C56.9,322 57.1,322.7 57.1,323.3 C57.2,323.9 56.9,324.6 56.4,325.1 Z M53.4,322.4 C53.199999999999996,322.59999999999997 53,322.9 53,323.29999999999995 C53,323.69999999999993 53.2,323.99999999999994 53.4,324.19999999999993 C53.6,324.3999999999999 53.9,324.49999999999994 54.3,324.49999999999994 C54.599999999999994,324.49999999999994 54.9,324.3999999999999 55.199999999999996,324.19999999999993 C55.4,323.99999999999994 55.599999999999994,323.69999999999993 55.599999999999994,323.29999999999995 C55.599999999999994,322.9 55.49999999999999,322.59999999999997 55.199999999999996,322.4 C54.99999999999999,322.2 54.699999999999996,322.09999999999997 54.3,322.09999999999997 C54,322.1 53.7,322.2 53.4,322.4 Z "/></g><g><g><path width="14.899999999999999" height="20.899999999999977" stroke-miterlimit="3" stroke="none" fill="#3F3F3F" d="M26.9,319.7 L29.1,298.8 L41.8,298.8 Z "/></g><path width="14.799999999999997" height="20.900000000000034" stroke-miterlimit="3" stroke="none" fill="#3F3F3F" d="M57.4,291.2 L56.1,312.1 L42.6,312.1 Z "/><g><path width="14.899999999999999" height="20.900000000000034" stroke-miterlimit="3" stroke="none" fill="#3F3F3F" d="M57.5,291.2 L55.2,312.1 L42.6,312.1 Z "/></g></g></g></g></g><g><g><path width="43.5" height="70.29999999999998" stroke-miterlimit="3" stroke="none" fill="#87858A" d="M118.1,137.3 L107.9,153 L83.5,205.5 L86.9,207.6 L127,142.8 Z "/><path width="31.30000000000001" height="54.599999999999994" stroke-miterlimit="3" stroke="none" fill="#C6C6C6" d="M77.7,199.7 L107.9,153 L86.6,204.1 L87.8,205.6 L86.9,207.6 L76.6,201.3 Z "/><path width="40.099999999999994" height="65.69999999999999" stroke-miterlimit="3" stroke="none" fill="#6A6A6B" d="M127,142.8 L126.1,148 L89.2,208.5 L86.9,207.6 Z "/><path width="10.099999999999994" height="16.30000000000001" stroke-miterlimit="3" stroke="none" fill="#C6C6C6" d="M127,142.8 L124.1,141 L116.9,157.3 Z "/></g><path width="70.20000000000002" height="70.19999999999999" stroke-miterlimit="3" stroke="none" fill="#1A1A25" d="M6.199999999999996,306.5 C6.199999999999996,287.11480352 21.914803519999996,271.4 41.3,271.4 C60.68519648,271.4 76.4,287.11480352 76.4,306.5 C76.4,325.88519648 60.68519648,341.59999999999997 41.3,341.59999999999997 C21.914803519999996,341.59999999999997 6.199999999999996,325.88519648 6.199999999999996,306.5 Z "/><path width="65.4896" height="71.40639999999999" stroke-miterlimit="3" stroke="none" fill="#142B31" d="M83.9,203.2 C53.2,180.6 28.800000000000004,229.79999999999998 28.800000000000004,229.79999999999998 C36.800000000000004,281.59999999999997 79,266.79999999999995 79,266.79999999999995 C110.4,222.7 83.9,203.2 83.9,203.2 Z M72.3,259.4 C50.599999999999994,261.09999999999997 37.8,233.99999999999997 37.8,233.99999999999997 L39.8,231.29999999999998 L74.3,256.7 L72.3,259.4 Z "/><path width="25.199999999999996" height="25.200000000000017" stroke-width="3.4859" stroke-miterlimit="3" stroke="#757573" fill="none" d="M33.4,257.5 C33.4,250.54121152 39.04121152,244.9 46,244.9 C52.95878848,244.9 58.599999999999994,250.54121152 58.599999999999994,257.5 C58.599999999999994,264.45878848 52.95878848,270.1 46,270.1 C39.04121152,270.1 33.4,264.45878848 33.4,257.5 Z "/><path width="10.517800000000001" height="12.099999999999994" stroke-miterlimit="3" stroke="none" fill="#142B31" d="M61.7,257.9 L56.6,255.49999999999997 L52.300000000000004,266.29999999999995 L56.2,267.59999999999997 C56.2,267.59999999999997 62.5,263.9 62.800000000000004,263.59999999999997 C63,263.2 61.7,257.9 61.7,257.9 Z "/><path width="3.8999999999999986" height="8.587999999999965" stroke-miterlimit="3" stroke="none" fill="#FF5151" d="M42.5,271.5 L42.8,264.5 C42.8,264.5 44.8,261.5 46.4,265 L46,271.9 "/></g><text type="textBox" transform="matrix(1 0 0 1 140.7731434384538 59.69888097660227)" width="353.0620549338759" height="50" stroke-miterlimit="3" stroke="none" fill="#000000" opacity="0.64" font-family="Arial" font-size="22" text-align="left" text-anchor="start"><tspan x="0" y="22"><![CDATA[O registro do veículo foi transferido]]></tspan><tspan x="0" y="47"><![CDATA[para seu nome]]></tspan></text></g><g xmlns="" id="GROUP" type="LAYER" name="GROUP"><path id="lash_3_" width="513.8" height="79.6" stroke-miterlimit="3" stroke="none" fill="#FCD17A" d="M66.7,177.8 C63.800000000000004,177.8 61.400000000000006,175.9 60.7,173.20000000000002 C68.5,151.8 81.7,115.20000000000002 83.2,110.10000000000002 C85.3,102.80000000000003 87.4,98.20000000000002 98.8,98.20000000000002 C110.19999999999999,98.20000000000002 317.8,98.20000000000002 317.8,98.20000000000002 C317.8,98.20000000000002 524.6,98.20000000000002 536,98.20000000000002 C547.4,98.20000000000002 549.5,102.90000000000002 551.6,110.10000000000002 C553.1,115.30000000000003 566.8000000000001,153.10000000000002 574.5,174.3 C573.5,176.4 571.4,177.8 568.9,177.8 "/><path id="Button_5_" width="48.39999999999998" height="48.39999999999998" stroke-miterlimit="3" stroke="none" fill="#E2E2E2" d="M317.7,267.3 C304.4,267.3 293.5,278.1 293.5,291.5 C293.5,304.8 304.3,315.7 317.7,315.7 C331,315.7 341.9,304.9 341.9,291.5 C341.9,278.1 331.1,267.3 317.7,267.3 Z M317.7,296.5 C314.9,296.5 312.59999999999997,294.2 312.59999999999997,291.4 C312.59999999999997,288.59999999999997 314.9,286.29999999999995 317.7,286.29999999999995 C320.5,286.29999999999995 322.8,288.59999999999997 322.8,291.4 C322.8,294.2 320.5,296.5 317.7,296.5 Z "/><g opacity="0.2"><path id="background_3_" width="520.7" height="230.5" stroke-miterlimit="3" stroke="none" fill="#3F3F3F" d="M60.4,404 L60.4,179.9 C60.4,176.4 63.199999999999996,173.5 66.7,173.5 L574.8000000000001,173.5 C578.3000000000001,173.5 581.1,176.3 581.1,179.9 L581.1,404 "/><path width="519.9000000000001" height="157.8" stroke-miterlimit="3" stroke="none" fill="#3F3F3F" d="M61.3,176.9 L83.9,96.2 L552.7,98.1 L581.2,179.4 L557.2,254 L88.5,254 Z "/></g><g opacity="0.69"><path id="background_2_" width="514.5000000000001" height="231.89999999999998" stroke-miterlimit="3" stroke="none" fill="#FCD17A" d="M60.4,404 L60.4,178.3 C60.4,174.9 63.199999999999996,172.10000000000002 66.6,172.10000000000002 L568.7,172.10000000000002 C572.1,172.10000000000002 574.9000000000001,174.90000000000003 574.9000000000001,178.3 L574.9000000000001,404 L60.4,404 Z "/><path width="514.1" height="155.5" stroke-miterlimit="3" stroke="none" fill="#F4BE60" opacity="0.46" d="M60.9,175.8 L83.4,96.5 L546.8,98.2 L575,178.4 L551.4,252 L87.5,252 Z "/></g><path transform="matrix(1 0 0 1 103.50000000000003 2.700000000000003)" width="426.7" height="249.1" stroke-miterlimit="3" stroke="none" fill="#3F3F3F" opacity="0.2" d="M0,0 L426.7,0 L426.7,249.1 L0,249.1 L0,0 Z "/><path transform="matrix(1 0 0 1 102.50000000000003 3.200000000000003)" width="420.2" height="248.5" stroke-miterlimit="3" stroke="none" fill="#FFFDF5" d="M0,0 L420.2,0 L420.2,248.5 L0,248.5 L0,0 Z "/><g opacity="0.5"><path id="SVGID_1_" width="215.2" height="65.9" stroke-miterlimit="3" stroke="none" fill="#BABABA" opacity="0.5" d="M279.6,192.1 C279.6,188 283,184.6 287.1,184.6 L487.3,184.6 C491.5,184.6 494.8,187.9 494.8,192.1 L494.8,250.5 L279.6,250.5 L279.6,192.1 Z "/><g clip-path="url(#_1439510746973_2_)"><path transform="matrix(1 0 0 1 271.5 179.7)" width="231.4" height="43.6" stroke-miterlimit="3" stroke="none" fill="#BABABA" d="M0,0 L231.4,0 L231.4,43.6 L0,43.6 L0,0 Z "/></g></g><g><path id="SVGID_3_" width="213" height="65.9" stroke-miterlimit="3" stroke="none" fill="#FFFFFF" d="M276.8,192.1 C276.8,188 280.1,184.6 284.3,184.6 L482.3,184.6 C486.40000000000003,184.6 489.8,187.9 489.8,192.1 L489.8,250.5 L276.8,250.5 L276.8,192.1 Z "/><g clip-path="url(#_1439510746973_3_)"><path transform="matrix(1 0 0 1 268.8 179.7)" width="228.9" height="43.6" stroke-miterlimit="3" stroke="none" fill="#216E68" d="M0,0 L228.9,0 L228.9,43.6 L0,43.6 L0,0 Z "/></g></g><path width="175.7" stroke-width="0.8715" stroke-miterlimit="3" stroke="#FFFF66" fill="none" d="M294.2,206 L469.9,206 "/><path stroke-miterlimit="3" stroke="none" fill="#948B72" d="M181.3,253.3 "/><path width="28.500000000000057" height="15.400000000000006" stroke-miterlimit="3" stroke="none" fill="#948B72" d="M306.5,249.9 L306.5,240.1 C306.5,237 309,234.5 312.1,234.5 L329.40000000000003,234.5 C332.50000000000006,234.5 335.00000000000006,237 335.00000000000006,240.1 L335.00000000000006,249.9 "/><path stroke-miterlimit="3" stroke="none" fill="#948B72" d="M163.9,253.3 "/><g opacity="0.2"><g><path width="44.599999999999994" height="72.1" stroke-miterlimit="3" stroke="none" fill="#3F3F3F" d="M121,137.3 L110.5,153.4 L85.5,207.2 L89,209.4 L130.1,142.9 Z "/><path width="32.099999999999994" height="56" stroke-miterlimit="3" stroke="none" fill="#3F3F3F" d="M79.5,201.3 L110.5,153.4 L88.7,205.8 L89.9,207.3 L89,209.4 L78.4,202.9 Z "/><path width="41.099999999999994" height="67.4" stroke-miterlimit="3" stroke="none" fill="#3F3F3F" d="M130.1,142.9 L129.1,148.3 L91.4,210.3 L89,209.4 Z "/><path width="10.399999999999991" height="16.80000000000001" stroke-miterlimit="3" stroke="none" fill="#3F3F3F" d="M130.1,142.9 L127.1,141.1 L119.7,157.9 Z "/></g><path width="72" height="72" stroke-miterlimit="3" stroke="none" fill="#3F3F3F" d="M6.200000000000003,310.8 C6.200000000000003,290.9177472 22.317747200000003,274.8 42.2,274.8 C62.082252800000006,274.8 78.2,290.9177472 78.2,310.8 C78.2,330.6822528 62.082252800000006,346.8 42.2,346.8 C22.317747200000003,346.8 6.200000000000003,330.6822528 6.200000000000003,310.8 Z "/><path width="67.12719999999999" height="73.28639999999999" stroke-miterlimit="3" stroke="none" fill="#3F3F3F" d="M85.9,204.9 C54.400000000000006,181.70000000000002 29.400000000000006,232.20000000000002 29.400000000000006,232.20000000000002 C37.60000000000001,285.3 80.9,270.20000000000005 80.9,270.20000000000005 C113,224.9 85.9,204.9 85.9,204.9 Z M74,262.5 C51.8,264.2 38.6,236.4 38.6,236.4 L40.7,233.6 L76.1,259.7 L74,262.5 Z "/><path width="25.800000000000004" height="25.799999999999983" stroke-miterlimit="3" stroke="none" fill="#3F3F3F" d="M34.1,260.5 C34.1,253.37552608 39.87552608,247.6 47,247.6 C54.12447392,247.6 59.900000000000006,253.37552608 59.900000000000006,260.5 C59.900000000000006,267.62447392 54.12447392,273.4 47,273.4 C39.87552608,273.4 34.1,267.62447392 34.1,260.5 Z "/><path width="10.742100000000008" height="12.400000000000034" stroke-miterlimit="3" stroke="none" fill="#3F3F3F" d="M63.1,261 L57.9,258.5 L53.5,269.6 L57.5,270.90000000000003 C57.5,270.90000000000003 64,267.1 64.2,266.8 C64.5,266.4 63.1,261 63.1,261 Z "/><path width="4" height="8.687999999999988" stroke-miterlimit="3" stroke="none" fill="#3F3F3F" d="M43.4,274.9 L43.699999999999996,267.7 C43.699999999999996,267.7 45.8,264.7 47.4,268.2 L47,275.2 "/><g><g><g><path width="5.199999999999996" height="4.800000000000011" stroke-miterlimit="3" stroke="none" fill="#3F3F3F" d="M29.6,324.4 L31.900000000000002,324.4 L31.900000000000002,325.7 L27,325.7 L29.5,322.2 L27.4,322.2 L27.4,320.9 L32.199999999999996,320.9 L29.6,324.4 Z "/><path width="5.600000000000005" height="5.2000000000000455" stroke-miterlimit="3" stroke="none" fill="#3F3F3F" d="M36.6,325.1 C36.2,325.5 35.4,325.90000000000003 34.5,325.90000000000003 C33.6,325.90000000000003 32.8,325.6 32.4,325.1 C31.9,324.6 31.7,323.90000000000003 31.7,323.3 C31.7,322.7 31.9,322 32.4,321.5 C32.8,321.1 33.6,320.7 34.5,320.7 C35.4,320.7 36.2,321 36.6,321.5 C37.1,322 37.300000000000004,322.7 37.300000000000004,323.3 C37.3,323.9 37.1,324.6 36.6,325.1 Z M33.6,322.4 C33.4,322.59999999999997 33.2,322.9 33.2,323.29999999999995 C33.2,323.69999999999993 33.400000000000006,323.99999999999994 33.6,324.19999999999993 C33.800000000000004,324.3999999999999 34.1,324.49999999999994 34.5,324.49999999999994 C34.8,324.49999999999994 35.1,324.3999999999999 35.4,324.19999999999993 C35.6,323.99999999999994 35.8,323.69999999999993 35.8,323.29999999999995 C35.8,322.9 35.699999999999996,322.59999999999997 35.4,322.4 C35.199999999999996,322.2 34.9,322.09999999999997 34.5,322.09999999999997 C34.1,322.1 33.8,322.2 33.6,322.4 Z "/><path width="5.6000000000000085" height="5.2000000000000455" stroke-miterlimit="3" stroke="none" fill="#3F3F3F" d="M42.5,325.1 C42.1,325.5 41.3,325.90000000000003 40.4,325.90000000000003 C39.5,325.90000000000003 38.699999999999996,325.6 38.3,325.1 C37.8,324.6 37.599999999999994,323.90000000000003 37.599999999999994,323.3 C37.599999999999994,322.7 37.8,322 38.3,321.5 C38.699999999999996,321.1 39.5,320.7 40.4,320.7 C41.3,320.7 42.1,321 42.5,321.5 C43,322 43.2,322.7 43.2,323.3 C43.2,323.9 43,324.6 42.5,325.1 Z M39.5,322.4 C39.3,322.59999999999997 39.1,322.9 39.1,323.29999999999995 C39.1,323.69999999999993 39.300000000000004,323.99999999999994 39.5,324.19999999999993 C39.7,324.3999999999999 40,324.49999999999994 40.4,324.49999999999994 C40.699999999999996,324.49999999999994 41,324.3999999999999 41.3,324.19999999999993 C41.5,323.99999999999994 41.699999999999996,323.69999999999993 41.699999999999996,323.29999999999995 C41.699999999999996,322.9 41.599999999999994,322.59999999999997 41.3,322.4 C41.099999999999994,322.2 40.8,322.09999999999997 40.4,322.09999999999997 C40,322.1 39.7,322.2 39.5,322.4 Z "/><path width="7.900000000000006" height="5.100000000000023" stroke-miterlimit="3" stroke="none" fill="#3F3F3F" d="M43.4,320.9 L45,320.9 L45,321.5 C45.4,320.9 46,320.8 46.3,320.8 C46.5,320.8 46.9,320.8 47.199999999999996,321 C47.49999999999999,321.1 47.699999999999996,321.4 47.8,321.7 C47.9,321.5 48.099999999999994,321.3 48.4,321.09999999999997 C48.699999999999996,320.9 49.1,320.79999999999995 49.4,320.79999999999995 C50,320.79999999999995 50.5,320.99999999999994 50.699999999999996,321.29999999999995 C51.199999999999996,321.69999999999993 51.199999999999996,322.4 51.199999999999996,322.69999999999993 L51.199999999999996,325.79999999999995 L49.599999999999994,325.79999999999995 L49.599999999999994,323.4 C49.599999999999994,323.09999999999997 49.599999999999994,322.7 49.39999999999999,322.5 C49.29999999999999,322.3 49.099999999999994,322.2 48.79999999999999,322.2 C48.49999999999999,322.2 48.29999999999999,322.3 48.19999999999999,322.5 C47.999999999999986,322.8 47.999999999999986,323.1 47.999999999999986,323.4 L47.999999999999986,325.79999999999995 L46.399999999999984,325.79999999999995 L46.399999999999984,323.29999999999995 C46.399999999999984,322.99999999999994 46.399999999999984,322.59999999999997 46.09999999999999,322.4 C45.899999999999984,322.2 45.69999999999999,322.2 45.59999999999999,322.2 C45.399999999999984,322.2 45.19999999999999,322.3 45.09999999999999,322.4 C44.79999999999999,322.7 44.79999999999999,323.2 44.79999999999999,323.4 L44.79999999999999,325.9 L43.29999999999999,325.9 L43.29999999999999,320.9 Z "/><path width="5.618200000000009" height="5.2000000000000455" stroke-miterlimit="3" stroke="none" fill="#3F3F3F" d="M56.4,325.1 C56,325.5 55.199999999999996,325.90000000000003 54.3,325.90000000000003 C53.4,325.90000000000003 52.599999999999994,325.6 52.199999999999996,325.1 C51.699999999999996,324.6 51.49999999999999,323.90000000000003 51.49999999999999,323.3 C51.49999999999999,322.7 51.699999999999996,322 52.199999999999996,321.5 C52.599999999999994,321.1 53.4,320.7 54.3,320.7 C55.199999999999996,320.7 56,321 56.4,321.5 C56.9,322 57.1,322.7 57.1,323.3 C57.2,323.9 56.9,324.6 56.4,325.1 Z M53.4,322.4 C53.199999999999996,322.59999999999997 53,322.9 53,323.29999999999995 C53,323.69999999999993 53.2,323.99999999999994 53.4,324.19999999999993 C53.6,324.3999999999999 53.9,324.49999999999994 54.3,324.49999999999994 C54.599999999999994,324.49999999999994 54.9,324.3999999999999 55.199999999999996,324.19999999999993 C55.4,323.99999999999994 55.599999999999994,323.69999999999993 55.599999999999994,323.29999999999995 C55.599999999999994,322.9 55.49999999999999,322.59999999999997 55.199999999999996,322.4 C54.99999999999999,322.2 54.699999999999996,322.09999999999997 54.3,322.09999999999997 C54,322.1 53.7,322.2 53.4,322.4 Z "/></g><g><g><path width="14.899999999999999" height="20.899999999999977" stroke-miterlimit="3" stroke="none" fill="#3F3F3F" d="M26.9,319.7 L29.1,298.8 L41.8,298.8 Z "/></g><path width="14.799999999999997" height="20.900000000000034" stroke-miterlimit="3" stroke="none" fill="#3F3F3F" d="M57.4,291.2 L56.1,312.1 L42.6,312.1 Z "/><g><path width="14.899999999999999" height="20.900000000000034" stroke-miterlimit="3" stroke="none" fill="#3F3F3F" d="M57.5,291.2 L55.2,312.1 L42.6,312.1 Z "/></g></g></g></g></g><g><g><path width="43.5" height="70.29999999999998" stroke-miterlimit="3" stroke="none" fill="#87858A" d="M118.1,137.3 L107.9,153 L83.5,205.5 L86.9,207.6 L127,142.8 Z "/><path width="31.30000000000001" height="54.599999999999994" stroke-miterlimit="3" stroke="none" fill="#C6C6C6" d="M77.7,199.7 L107.9,153 L86.6,204.1 L87.8,205.6 L86.9,207.6 L76.6,201.3 Z "/><path width="40.099999999999994" height="65.69999999999999" stroke-miterlimit="3" stroke="none" fill="#6A6A6B" d="M127,142.8 L126.1,148 L89.2,208.5 L86.9,207.6 Z "/><path width="10.099999999999994" height="16.30000000000001" stroke-miterlimit="3" stroke="none" fill="#C6C6C6" d="M127,142.8 L124.1,141 L116.9,157.3 Z "/></g><path width="70.20000000000002" height="70.19999999999999" stroke-miterlimit="3" stroke="none" fill="#1A1A25" d="M6.199999999999996,306.5 C6.199999999999996,287.11480352 21.914803519999996,271.4 41.3,271.4 C60.68519648,271.4 76.4,287.11480352 76.4,306.5 C76.4,325.88519648 60.68519648,341.59999999999997 41.3,341.59999999999997 C21.914803519999996,341.59999999999997 6.199999999999996,325.88519648 6.199999999999996,306.5 Z "/><path width="65.4896" height="71.40639999999999" stroke-miterlimit="3" stroke="none" fill="#142B31" d="M83.9,203.2 C53.2,180.6 28.800000000000004,229.79999999999998 28.800000000000004,229.79999999999998 C36.800000000000004,281.59999999999997 79,266.79999999999995 79,266.79999999999995 C110.4,222.7 83.9,203.2 83.9,203.2 Z M72.3,259.4 C50.599999999999994,261.09999999999997 37.8,233.99999999999997 37.8,233.99999999999997 L39.8,231.29999999999998 L74.3,256.7 L72.3,259.4 Z "/><path width="25.199999999999996" height="25.200000000000017" stroke-width="3.4859" stroke-miterlimit="3" stroke="#757573" fill="none" d="M33.4,257.5 C33.4,250.54121152 39.04121152,244.9 46,244.9 C52.95878848,244.9 58.599999999999994,250.54121152 58.599999999999994,257.5 C58.599999999999994,264.45878848 52.95878848,270.1 46,270.1 C39.04121152,270.1 33.4,264.45878848 33.4,257.5 Z "/><path width="10.517800000000001" height="12.099999999999994" stroke-miterlimit="3" stroke="none" fill="#142B31" d="M61.7,257.9 L56.6,255.49999999999997 L52.300000000000004,266.29999999999995 L56.2,267.59999999999997 C56.2,267.59999999999997 62.5,263.9 62.800000000000004,263.59999999999997 C63,263.2 61.7,257.9 61.7,257.9 Z "/><path width="3.8999999999999986" height="8.587999999999965" stroke-miterlimit="3" stroke="none" fill="#FF5151" d="M42.5,271.5 L42.8,264.5 C42.8,264.5 44.8,261.5 46.4,265 L46,271.9 "/></g><text type="textBox" transform="matrix(1 0 0 1 140.77314343845381 59.69888097660227)" width="353.0620549338759" height="50" stroke-miterlimit="3" stroke="none" fill="#000000" opacity="0.64" font-family="Arial" font-size="22" text-align="left" text-anchor="start"><tspan x="0" y="22"><![CDATA[O Certificado de Registro de Veículo]]></tspan><tspan x="0" y="47"><![CDATA[foi transferido para seu nome]]></tspan></text><text type="textBox" transform="matrix(1 0 0 1 290.7229862475442 190.42829076620825)" width="195.33202357563846" height="13" stroke-miterlimit="3" stroke="none" fill="#A6C567" font-family="Arial" font-weight="bold" font-size="10" text-align="left" text-anchor="start"><tspan x="0" y="10"><![CDATA[REPÚBLICA FEDERATIVA DO BRASIL]]></tspan></text><text type="textBox" transform="matrix(1 0 0 1 279.28094302554115 209.22593320235757)" width="213.51532416502886" height="13" stroke-miterlimit="3" stroke="none" fill="#A6C567" font-family="Arial" font-weight="bold" font-size="10" text-align="left" text-anchor="start"><tspan x="0" y="10"><![CDATA[CERTIFICADO DE REGISTRO DE VEÍCULO]]></tspan></text><text type="textBox" transform="matrix(1 0 0 1 27.555992141453814 288.5029469548135)" width="67.01768172888018" height="36" stroke-miterlimit="3" stroke="none" fill="#FFFFFF" opacity="0.69" font-family="Sirin Stencil" font-size="24" text-align="left" text-anchor="start"><tspan x="0" y="24"><![CDATA[sc]]></tspan></text></g></svg>